<svg width="46" height="46" viewBox="0 0 46 46" fill="none" xmlns="http://www.w3.org/2000/svg">
<path d="M23.0005 0.25C16.9895 0.322935 11.2452 2.74322 6.99445 6.99396C2.74371 11.2447 0.323424 16.989 0.250488 23C0.323424 29.011 2.74371 34.7553 6.99445 39.006C11.2452 43.2568 16.9895 45.6771 23.0005 45.75C29.0115 45.6771 34.7558 43.2568 39.0065 39.006C43.2573 34.7553 45.6776 29.011 45.7505 23C45.6776 16.989 43.2573 11.2447 39.0065 6.99396C34.7558 2.74322 29.0115 0.322935 23.0005 0.25ZM36.0005 24.625H24.6255V36H21.3755V24.625H10.0005V21.375H21.3755V10H24.6255V21.375H36.0005V24.625Z" fill="#008B94"/>
</svg>
