<svg width="12" height="12" viewBox="0 0 12 12" fill="none" xmlns="http://www.w3.org/2000/svg">
<path d="M11.2505 1.12263L8.24786 1.12264V0.375088C8.24786 0.167852 8.08005 0 7.87286 0C7.66568 0 7.49786 0.167852 7.49786 0.375088V1.12245H4.49786V0.375088C4.49786 0.167852 4.33005 0 4.12286 0C3.91568 0 3.74786 0.167852 3.74786 0.375088V1.12245H0.750488C0.336301 1.12245 0.000488281 1.45834 0.000488281 1.87263V11.2498C0.000488281 11.6641 0.336301 12 0.750488 12H11.2505C11.6647 12 12.0005 11.6641 12.0005 11.2498V1.87263C12.0005 1.45852 11.6647 1.12263 11.2505 1.12263ZM11.2505 11.2498H0.750488V1.87263H3.74786V2.25053C3.74786 2.45775 3.91568 2.62562 4.12286 2.62562C4.33005 2.62562 4.49786 2.45775 4.49786 2.25053V1.87281H7.49786V2.25072C7.49786 2.45795 7.66568 2.6258 7.87286 2.6258C8.08005 2.6258 8.24786 2.45795 8.24786 2.25072V1.87281H11.2505V11.2498ZM8.62549 5.99877H9.37549C9.58249 5.99877 9.75049 5.83073 9.75049 5.62368V4.87351C9.75049 4.66646 9.58249 4.49842 9.37549 4.49842H8.62549C8.41849 4.49842 8.25049 4.66646 8.25049 4.87351V5.62368C8.25049 5.83073 8.41849 5.99877 8.62549 5.99877ZM8.62549 8.99929H9.37549C9.58249 8.99929 9.75049 8.83143 9.75049 8.6242V7.87402C9.75049 7.66697 9.58249 7.49893 9.37549 7.49893H8.62549C8.41849 7.49893 8.25049 7.66697 8.25049 7.87402V8.6242C8.25049 8.83162 8.41849 8.99929 8.62549 8.99929ZM6.37549 7.49893H5.62549C5.41849 7.49893 5.25049 7.66697 5.25049 7.87402V8.6242C5.25049 8.83143 5.41849 8.99929 5.62549 8.99929H6.37549C6.58249 8.99929 6.75049 8.83143 6.75049 8.6242V7.87402C6.75049 7.66716 6.58249 7.49893 6.37549 7.49893ZM6.37549 4.49842H5.62549C5.41849 4.49842 5.25049 4.66646 5.25049 4.87351V5.62368C5.25049 5.83073 5.41849 5.99877 5.62549 5.99877H6.37549C6.58249 5.99877 6.75049 5.83073 6.75049 5.62368V4.87351C6.75049 4.66627 6.58249 4.49842 6.37549 4.49842ZM3.37549 4.49842H2.62549C2.41849 4.49842 2.25049 4.66646 2.25049 4.87351V5.62368C2.25049 5.83073 2.41849 5.99877 2.62549 5.99877H3.37549C3.58249 5.99877 3.75049 5.83073 3.75049 5.62368V4.87351C3.75049 4.66627 3.58249 4.49842 3.37549 4.49842ZM3.37549 7.49893H2.62549C2.41849 7.49893 2.25049 7.66697 2.25049 7.87402V8.6242C2.25049 8.83143 2.41849 8.99929 2.62549 8.99929H3.37549C3.58249 8.99929 3.75049 8.83143 3.75049 8.6242V7.87402C3.75049 7.66716 3.58249 7.49893 3.37549 7.49893Z" fill="black" fill-opacity="0.7"/>
</svg>
